<?xml version="1.0" encoding="utf-8"?>
<!-- Generator: Adobe Illustrator 20.1.0, SVG Export Plug-In . SVG Version: 6.00 Build 0)  -->
<svg version="1.1" id="Layer_1" xmlns="http://www.w3.org/2000/svg" xmlns:xlink="http://www.w3.org/1999/xlink" x="0px" y="0px"
	 viewBox="0 0 360.9 436.5" style="enable-background:new 0 0 360.9 436.5;" xml:space="preserve">
<style type="text/css">
	.st0{fill:#020203;}
	.st1{fill:#FFFFFF;}
</style>
<path class="st0" d="M209.7,289.1c-1.6-1.7-3.6-3-5.7-4.1c-4.5-2.4-9.5-3.8-14.4-5.1v38c8-0.9,17.1-3.8,21.3-11.2l0,0
	c2-3.6,2.4-7.9,1.6-11.9C212.1,292.6,211.2,290.7,209.7,289.1z"/>
<path class="st0" d="M210.9,306.7C211,306.7,211,306.7,210.9,306.7L210.9,306.7C211,306.7,211,306.7,210.9,306.7z"/>
<path class="st0" d="M211.1,306.4c-0.1,0.1-0.1,0.2-0.2,0.3l0,0C211,306.5,211.1,306.4,211.1,306.4z"/>
<path class="st0" d="M211.3,306C211.4,306,211.4,306,211.3,306L211.3,306z"/>
<path class="st0" d="M203.1,99.2c32.3-27.2,53.9-88.3,40.6-91c-17.7-3.6-56,12-74.6,14.8c-26.3,3.2-54.9-28.5-71-10.9
	c-13.1,14.4,9.4,66.6,44.5,89.3c-104.8,51.5-252,309.9,4.9,328.7C502.9,456.1,325,149.4,203.1,99.2z"/>
<path class="st0" d="M210.8,306.9c-0.1,0.1-0.1,0.2-0.2,0.3C210.7,307.1,210.8,307,210.8,306.9z"/>
<g>
	<rect x="106.3" y="221.4" class="st1" width="139.1" height="52.1"/>
	<rect x="106.3" y="282.3" class="st1" width="139.1" height="52.1"/>
	<path class="st1" d="M230.3,156.3h-28.4v-17.4h-52.1v17.4h-28.4c-8.3,0-15.1,6.8-15.1,15.1v41.4h139.1v-41.4
		C245.4,163,238.6,156.3,230.3,156.3z"/>
	<path class="st1" d="M106.3,384.6c0,8.3,6.8,15.1,15.1,15.1h109c8.3,0,15.1-6.8,15.1-15.1v-41.4H106.3V384.6z"/>
</g>
<g>
	<path class="st1" d="M320.2,300.6c0,0-7.5,7.3-15.7,10.3c-60.5,21.9-35,64.5-34.1,64.6c0,0,3.4-5.9,8-9.3c29.1-21.4,35-46,35-46
		s-6.5,29.6-32.4,48c-5.7,4.1-9.6,14.1-11.2,24.1c0,0,4-1.6,5.8-2.1c0.7-4.4,2.1-8.7,4.5-12.5c36.1,4.3,48-24.8,49.5-35
		C333.1,318.8,320.2,300.6,320.2,300.6z"/>
</g>
</svg>
